# xmcd
#
# Track frame offsets: 
#        150
#        18495
#        44042
#        64500
#        85520
#        102150
#        119190
#        140072
#        161455
#        185427
#        209362
#        227967
#        247867
#        265885
#        284852
#        305517
#
# Disc length: 4340 seconds
#
# Revision: 0
# Processed by: cddbd v1.5.2PL0 Copyright (c) Steve Scherf et al.
# Submitted via: ExactAudioCopy v1.1
#
DISCID=ee10f210
DTITLE=Various Artist - FREEDOM - R&B LADIES 2
DYEAR=1999
DGENRE=R&B
TTITLE0=HIL ST. SOUL - STRICTLY A VIBE THANG (ORIGINAL MIX)
TTITLE1=DNA feat. NADIA - CAN'T GO BACK
TTITLE2=BEVERLEY KNIGHT - FLAVOUR OF THE OLD SCHOOL (2B3 NEW FLAVA)
TTITLE3=CELETIA - CANDLELIGHT
TTITLE4=DEBORAH JORDAN - CRAZY FOR YOU
TTITLE5=FULL FLAVA feat. FIONA DAY - FALL
TTITLE6=NERESA MAYE - ULTIMATE LOVE (REDBONE MIX)
TTITLE7=KEELEY BURTON - TRUST YOU AGAIN
TTITLE8=MIKE STEVENS with JULIET ROBERTS - DREAMS OF YOU
TTITLE9=DESIRE - DESIRE (ORIGINAL MIX)
TTITLE10=MISHELL - MERCEDES BOY
TTITLE11=STYLLE FREEE - BACK WHERE YOU OUGHTTA BE
TTITLE12=DI'MOND - SO AMAZING
TTITLE13=MIKE STEVENS feat. MELI'SA MORGAN - SEARCHIN' (NYQI'S CHICAGO
TTITLE13=CITY MIX)
TTITLE14=DONNA RENEE - I BELIEVE
TTITLE15=YANA JOHNSON - I KEEP FORGETTIN'
EXTD=
EXTT0=
EXTT1=
EXTT2=
EXTT3=
EXTT4=
EXTT5=
EXTT6=
EXTT7=
EXTT8=
EXTT9=
EXTT10=
EXTT11=
EXTT12=
EXTT13=
EXTT14=
EXTT15=
PLAYORDER=
